<svg viewBox="0 0 310 310" xmlns="http://www.w3.org/2000/svg"><path fill="red" d="M297.92 64.645c-11.19-13.302-31.85-18.728-71.306-18.728H83.394c-40.359 0-61.369 5.776-72.517 19.938C.008 79.663.008 100.008.008 128.166v53.669c0 54.551 12.896 82.248 83.386 82.248h143.23c34.216 0 53.176-4.788 65.442-16.527 12.579-12.038 17.946-31.693 17.946-65.721v-53.669c0-29.695-.841-50.16-12.083-63.521zm-98.896 97.765l-65.038 33.991a9.997 9.997 0 01-14.632-8.863v-67.764a10 10 0 0114.609-8.874l65.038 33.772a10 10 0 01.023 17.738z"/></svg>